<?xml version="1.0" encoding="UTF-8" standalone="no"?>
<svg
   width="370.08551mm"
   height="518.93561mm"
   viewBox="0 0 370.08551 518.93561"
   version="1.1"
   id="svg5"
   xml:space="preserve"
   sodipodi:docname="SHantilly4.svg"
   inkscape:version="1.4 (e7c3feb100, 2024-10-09)"
   xmlns:inkscape="http://www.inkscape.org/namespaces/inkscape"
   xmlns:sodipodi="http://sodipodi.sourceforge.net/DTD/sodipodi-0.dtd"
   xmlns="http://www.w3.org/2000/svg"
   xmlns:svg="http://www.w3.org/2000/svg"><sodipodi:namedview
     id="namedview1"
     pagecolor="#ffffff"
     bordercolor="#000000"
     borderopacity="0.25"
     inkscape:showpageshadow="2"
     inkscape:pageopacity="0.0"
     inkscape:pagecheckerboard="0"
     inkscape:deskcolor="#d1d1d1"
     inkscape:document-units="mm"
     inkscape:zoom="0.19706001"
     inkscape:cx="1684.766"
     inkscape:cy="1250.888"
     inkscape:window-width="1920"
     inkscape:window-height="1040"
     inkscape:window-x="1920"
     inkscape:window-y="0"
     inkscape:window-maximized="1"
     inkscape:current-layer="g1"
     showgrid="false"
     showguides="false"><inkscape:grid
       id="grid228"
       units="mm"
       originx="0"
       originy="0"
       spacingx="0.99999998"
       spacingy="1"
       empcolor="#0099e5"
       empopacity="0.30196078"
       color="#0099e5"
       opacity="0.14901961"
       empspacing="5"
       enabled="true"
       visible="false" /></sodipodi:namedview><defs
     id="defs2"><pattern
       patternUnits="userSpaceOnUse"
       width="841.65313"
       height="314.6381"
       patternTransform="translate(-1365.0611,1332.6644)"
       preserveAspectRatio="xMidYMid"
       id="pattern224"><path
         d="M 422.10652,313.88557 A 440.87082,491.08592 29.906961 0 0 485.76903,305.36001 440.87082,491.08592 29.906961 0 0 841.65313,14.744655 497.39962,568.60199 20.019274 0 1 502.01817,251.04306 497.39962,568.60199 20.019274 0 1 0,0 440.87082,491.08592 29.906961 0 0 422.10652,313.88557 Z"
         style="fill:#6c5367;stroke-width:1.7126"
         id="path224" /></pattern></defs><g
     id="g162"
     style="display:inline;fill:#0b280b"
     inkscape:label="detalhes"><path
       d="m 39.998809,338.30201 c 0.01811,0.0121 0.226329,0.0835 0.23541,0.0924 0.0027,0.003 0.03192,0.1124 0.03501,0.11644 0.584671,0.79352 7.366899,26.93854 25.167605,97.04582 8.882106,34.98234 16.507103,64.30312 16.94418,65.15892 2.575267,5.02967 5.854478,6.50089 22.933326,10.28173 17.78884,3.93745 36.30695,6.22735 63.32674,7.82879 h 0.002 c 5.722,0.33948 42.36699,-0.16701 50.32672,-0.69444 11.20703,-0.74464 23.50558,-1.89746 32.52416,-3.0513 16.84284,-2.15312 37.4736,-6.57473 43.26232,-9.27144 5.21105,-2.42794 5.06948,-2.07092 12.11298,-30.35546 10.12048,-40.63844 32.20746,-126.96256 34.49544,-134.82332 0.64076,-2.20226 1.1656,-2.71033 3.25809,-3.80054 a 68.884293,53.863342 0 0 1 -32.48068,7.25339 68.884293,53.863342 0 0 1 -35.74246,-7.19022 144.65195,66.428333 0 0 1 -71.9001,8.8083 144.65195,66.428333 0 0 1 -76.26578,-10.45093 93.755892,62.831137 0 0 1 -45.036897,8.99105 93.755892,62.831137 0 0 1 -42.246989,-6.25718 93.755892,62.831137 0 0 1 -0.496266,-0.19423 77.988274,30.184129 0 0 1 -0.454914,0.51222 z"
       style="display:inline;fill:#225500;stroke-width:1.01816"
       id="path212" /><path
       d="m 42.684115,341.57321 c 0.01779,0.0117 0.222339,0.0807 0.231259,0.0894 0.0027,0.003 0.03136,0.10877 0.03439,0.11269 0.574363,0.76786 7.237019,26.0676 24.723893,93.90825 8.725512,33.85134 16.216078,62.22417 16.645449,63.0523 2.529864,4.86706 5.751262,6.29072 22.529004,9.94932 17.47522,3.81014 35.66685,6.02601 62.21027,7.57567 h 0.002 c 5.62112,0.3285 41.62005,-0.1616 49.43944,-0.67198 11.00945,-0.72058 23.09117,-1.83612 31.95075,-2.95266 16.5459,-2.0835 36.81293,-6.36216 42.49959,-8.97169 5.11918,-2.34943 4.98011,-2.00396 11.89943,-29.37404 9.94205,-39.32458 31.63963,-122.85778 33.88727,-130.46439 0.62947,-2.13106 1.14505,-2.62271 3.20065,-3.67768 a 67.669842,52.121905 0 0 1 -31.90803,7.0189 67.669842,52.121905 0 0 1 -35.11231,-6.95777 142.10169,64.280662 0 0 1 -70.63248,8.52352 142.10169,64.280662 0 0 1 -74.92119,-10.11304 92.102947,60.799767 0 0 1 -44.24289,8.70035 92.102947,60.799767 0 0 1 -41.502161,-6.05487 92.102947,60.799767 0 0 1 -0.487517,-0.18794 76.613317,29.208257 0 0 1 -0.446894,0.49565 z"
       style="display:inline;fill:#00aa00;stroke-width:0.992694"
       id="path210" /><path
       d="m 201.967,351.80023 c -1.38,0 -3.27406,11.87566 -3.93206,24.64966 -0.505,9.805 -0.6771,133.13802 -0.1881,134.41402 0.736,1.919 1.10897,0.33902 1.37097,-5.80998 1.45,-34.032 2.52307,-56.89903 3.54707,-75.56903 1.723,-31.376 1.975,-37.84388 1.988,-51.04288 0,-13.459 -0.23898,-16.77196 -1.81798,-24.02696 -0.312,-1.439 -0.7479,-2.61483 -0.9679,-2.61483 z"
       style="display:inline;fill:#0b280b;stroke-width:0.278817"
       id="path162" /><path
       d="m 228.13078,351.05196 -0.79789,1.99316 c -1.986,4.962 -3.85084,17.33505 -4.88084,32.36805 -1.248,18.219 -3.30095,69.1267 -3.97495,98.6007 -0.283,12.325 -0.62096,23.36212 -0.75396,24.52512 -0.247,2.184 0.5391,3.01383 0.9431,0.99683 0.127,-0.617 0.57562,-5.9387 1.00562,-11.8277 0.892,-12.205 3.17407,-39.86488 5.01107,-60.75288 3.69,-41.943 4.88017,-60.96316 4.55217,-72.70616 -0.149,-5.34 -0.45933,-10.49508 -0.68833,-11.45408 z"
       style="display:inline;fill:#0b280b;stroke-width:0.278817"
       id="path161" /><path
       d="m 180.46909,351.05196 -0.7183,1.72186 c -1.228,2.943 -2.07685,8.85526 -2.70785,18.84226 -0.607,9.611 -0.30593,26.1699 1.08107,59.6129 1.628,39.248 2.06107,49.33405 2.49907,58.13805 0.268,5.409 0.48783,12.48672 0.48783,15.72772 0,5.548 0.15709,6.55722 1.02009,6.55722 0.196,0 0.50582,-6.66711 0.68782,-14.81511 1.061,-47.202 1.73342,-111.54765 1.26142,-120.62365 -0.473,-9.107 -1.71499,-18.58809 -3.03599,-23.16809 z"
       style="display:inline;fill:#0b280b;stroke-width:0.278817"
       id="path160" /><path
       d="m 131.81211,350.62718 c -0.741,-0.78 -1.14606,7.28787 -0.83406,16.61087 0.407,12.165 2.15976,30.33819 9.82576,101.83719 1.645,15.337 3.21512,30.23978 3.48712,33.11478 0.597,6.292 0.83208,7.46983 1.48208,7.46983 0.274,0 0.38608,-0.50386 0.24908,-1.12086 -0.141,-0.615 -0.70212,-9.85987 -1.25212,-20.54087 -0.551,-10.682 -1.11412,-20.31816 -1.25212,-21.41316 -0.142,-1.095 -0.47895,-6.69789 -0.75395,-12.44989 -1.512,-31.581 -4.05376,-67.10103 -5.75676,-80.42403 -1.241,-9.709 -3.95703,-21.77886 -5.19503,-23.08386 z"
       style="display:inline;fill:#0b280b;stroke-width:0.278817"
       id="path159" /><path
       d="m 155.58999,350.55483 -0.42788,1.49397 c -0.744,2.6 -1.50795,16.22524 -1.21595,21.66224 0.156,2.876 0.51385,9.93486 0.79685,15.68586 0.683,13.916 2.30519,41.69025 3.22719,55.27725 0.409,6.025 0.96465,14.65299 1.23765,19.17299 0.271,4.518 0.81795,12.69712 1.21595,18.17512 0.397,5.479 0.97024,13.99391 1.27124,18.92391 0.555,9.05 0.69903,10.20764 1.28003,10.20764 0.177,0 0.178,-9.35494 0,-20.78994 h 0.006 c -1.604,-105.939 -1.71377,-109.73277 -3.56877,-122.87777 -0.858,-6.09 -2.36687,-13.28705 -3.24787,-15.49105 z"
       style="display:inline;fill:#0b280b;stroke-width:0.278817"
       id="path158" /><path
       d="m 285.60944,350.11765 c -1.08089,0.70293 -3.47464,7.50176 -5.32939,15.87551 -3.414,15.411 -7.23998,40.82896 -14.99598,99.59496 -1.121,8.491 -2.70304,20.32775 -3.51504,26.30175 -1.509,11.092 -1.7048,13.18321 -1.1808,12.66021 0.163,-0.163 1.71863,-8.10013 3.45663,-17.63613 1.737,-9.539 4.64294,-25.29609 6.45594,-35.02009 3.877,-20.783 11.59428,-64.94786 13.40228,-76.68886 1.173,-7.616 2.279,-19.0508 2.281,-23.5908 0,-1.28775 -0.21434,-1.73087 -0.57464,-1.49655 z"
       style="display:inline;fill:#0b280b;stroke-width:0.278817"
       id="path157" /><path
       d="m 104.41275,350.05098 c -0.66,-0.408 -0.63851,11.59919 0.0305,18.25419 0.641,6.36 2.84065,21.91563 5.19865,36.77863 5.091,32.061 15.69516,100.02443 15.69516,100.58043 0,0.281 0.24897,0.51056 0.55397,0.51056 0.365,0 0.45824,-0.72267 0.26924,-2.11667 -0.345,-2.564 -0.81141,-6.78313 -3.06441,-27.76213 -7.143,-66.489 -11.17865,-97.87609 -14.43065,-112.22209 -1.543,-6.802 -3.61245,-13.62692 -4.25245,-14.02292 z"
       style="display:inline;fill:#0b280b;stroke-width:0.278817"
       id="path156" /><path
       d="m 308.42407,349.96882 c -1.012,-1.013 -4.21596,8.035 -6.99596,19.759 -3.276,13.815 -11.88491,63.57322 -18.73891,108.31122 -1.091,7.12 -2.32006,14.85086 -2.73006,17.18086 -0.879,4.985 -0.90194,5.34111 -0.29094,4.70411 0.25,-0.259 2.17694,-9.0998 4.28294,-19.6448 2.106,-10.545 7.29402,-35.64337 11.52902,-55.77437 8.282,-39.368 9.61408,-45.93502 11.11508,-54.77702 1.059,-6.238 2.26983,-19.318 1.82883,-19.759 z"
       style="display:inline;fill:#0b280b;stroke-width:0.278817"
       id="path155" /><path
       d="m 255.07384,349.90319 c -0.387,-0.387 -1.58204,2.79475 -2.68304,7.14375 -2.43,9.588 -4.02198,22.67103 -6.30298,51.77203 -1.89,24.125 -3.31096,43.65705 -4.45296,61.25105 -1.686,26.004 -2.23565,33.90406 -2.57865,37.10006 -0.216,2.023 -0.14525,2.60016 0.26975,2.20916 0.308,-0.29 0.78217,-2.53099 1.05317,-4.97799 0.86,-7.794 1.94763,-16.91612 4.24263,-35.57612 1.23,-9.997 2.79317,-22.76931 3.47317,-28.38431 0.68,-5.616 1.79582,-14.80188 2.47582,-20.41788 2.185,-18.01 4.69933,-42.3368 5.25033,-50.7938 0.491,-7.542 0.0698,-18.51295 -0.74724,-19.32595 z"
       style="display:inline;fill:#0b280b;stroke-width:0.278817"
       id="path154" /><path
       d="m 64.540763,349.53319 c -1.026,-0.635 2.14e-4,10.05192 2.010214,21.18992 1.532,8.43 8.116856,37.59371 17.935856,79.42771 5.361,22.84 5.385056,22.93311 5.766056,22.55211 0.142,-0.141 -0.884662,-6.94799 -2.270662,-15.13499 -1.386,-8.188 -2.614066,-15.22319 -2.730066,-15.63419 -0.113,-0.411 -0.902113,-4.78 -1.745113,-9.71 -4.868,-28.44 -11.314115,-60.53795 -13.921115,-69.30895 -1.77,-5.958 -4.42517,-12.99861 -5.04517,-13.38161 z"
       style="display:inline;fill:#0b280b;stroke-width:0.278817"
       id="path153" /><path
       d="m 328.38977,349.35749 c -0.0726,-0.0317 -0.27592,0.2112 -0.67592,0.6997 -1.549,1.891 -5.06088,9.98275 -7.34788,16.93075 -4.102,12.457 -11.21775,43.17924 -20.24475,87.39724 -0.81,3.97 -1.70114,8.00266 -1.97714,8.95966 -0.6,2.073 -0.64016,2.99 -0.12816,2.99 0.209,0 0.85033,-1.73568 1.42833,-3.85868 0.577,-2.122 4.31496,-15.73541 8.30596,-30.25241 12.688,-46.15 17.4847,-64.89974 19.4877,-76.19174 0.438,-2.464 0.90789,-5.04178 1.04489,-5.72678 0.1215,-0.6095 0.1796,-0.91599 0.10697,-0.94774 z"
       style="display:inline;fill:#0b280b;stroke-width:0.278817"
       id="path152" /><path
       d="m 83.503947,349.05983 0.219108,8.21707 c 0.264,9.91 1.59103,18.24404 8.44703,53.03604 4.389,22.274 7.21605,36.87904 14.027055,72.45604 3.422,17.873 3.86383,19.9018 4.06383,18.6738 0.09,-0.547 -1.06684,-9.62273 -2.56884,-20.16673 -5.432,-38.102 -13.016361,-87.496 -15.516361,-101.045 -2.517,-13.648 -5.139708,-23.70895 -7.450708,-28.58895 z"
       style="display:inline;fill:#0b280b;stroke-width:0.278817"
       id="path150" /></g><g
     id="g1"
     style="display:inline;fill:#008033"
     transform="matrix(0.98644635,0,0,0.98523298,0.60903653,2.0946296)"
     inkscape:label="chantilly"><path
       d="m 174.85141,-2.1255802 c -0.22093,0.00719 -0.27882,0.1181281 -0.21688,0.3099451 -0.57265,0.054946 -0.0326,0.8036551 1.73661,2.53900422 5.55834,5.44732578 10.64435,13.92949088 12.40826,20.68832488 1.11805,4.303222 1.10562,12.389112 -0.0309,16.878226 -1.09842,4.337885 -2.96491,8.350913 -5.57549,12.061863 -4.50843,6.28554 -11.216,11.680384 -20.17246,16.23074 -2.29714,1.167724 -9.11164,4.098682 -15.1444,6.516281 -6.0348,2.417611 -12.10593,4.97277 -13.49476,5.680389 -8.22954,4.193331 -15.38049,10.682971 -18.51599,16.807105 -0.003,0.0062 -0.005,0.01037 -0.008,0.01756 -0.0488,0.09191 -0.13631,0.185224 -0.18335,0.27704 -3.06758,5.991632 -3.6901,8.485442 -3.6901,14.916652 v 5.44422 l -2.83725,-0.36833 c -5.2603,-0.68606 -15.838659,-0.38298 -19.436421,0.55673 -7.033186,1.83528 -12.525416,5.61935 -15.977342,10.88099 -1.189279,1.75483 -2.153772,3.67376 -2.859254,5.75045 -1.378686,4.06187 -1.725304,9.1433 -0.887955,13.03469 0.355691,1.67356 0.471521,2.99467 0.326891,3.24805 -0.348757,0.19943 -2.719276,1.42322 -5.63835,2.90733 -6.865513,3.49258 -12.035577,7.77441 -15.982064,13.23584 -1.320719,1.79448 -2.508034,3.71595 -3.571186,5.78653 -2.933763,5.71025 -4.147533,10.75255 -4.30669,17.89139 l -0.12468,5.71701 -3.524561,2.42542 c -5.874165,4.0475 -10.691196,8.84288 -14.395276,14.26121 -3.70205,5.33492 -6.309505,11.28486 -7.740624,17.74384 -1.184033,5.30457 -1.19514,15.8408 -0.03038,21.16386 l 0.813037,3.722 -1.696274,2.03163 c -2.139988,2.5615 -4.014508,5.12893 -5.6593087,7.73059 -4.9454075,7.7289 -7.77427301,15.7652 -8.82816613,24.96016 -1.45066177,12.63751 2.04809213,25.51464 9.74440553,35.8629 6.6095833,8.8858 17.3285573,16.35805 29.9110983,20.85127 1.811698,0.6463 2.802494,1.08578 3.543419,1.43296 -0.007,-0.0249 -0.01398,-0.0516 -0.0152,-0.0526 -0.009,-0.009 -0.216132,-0.0817 -0.234167,-0.094 a 77.665976,30.719376 0 0 0 0.452619,-0.52117 93.368432,63.945305 0 0 0 0.494528,0.19744 93.368432,63.945305 0 0 0 42.072095,6.3682 93.368432,63.945305 0 0 0 44.851186,-9.15028 144.05415,67.606288 0 0 0 75.95042,10.63632 144.05415,67.606288 0 0 0 71.60286,-8.96453 68.599619,54.818485 0 0 0 35.59503,7.31768 68.599619,54.818485 0 0 0 31.59113,-7.12555 c 0.25865,-0.13751 0.27959,-0.21396 0.59773,-0.37683 2.06173,-1.05427 3.99765,-2.36806 5.93172,-3.67157 a 47.938337,69.815714 75.130523 0 0 0.96548,-0.37044 c 2.76352,-1.95318 5.2715,-4.18853 7.63114,-6.52373 0.37189,-0.36472 0.72123,-0.72842 1.08126,-1.10072 1.59824,-1.66716 3.05227,-3.38802 4.3816,-5.1746 0.48881,-0.64955 1.01818,-1.2748 1.46734,-1.9361 0.22549,-0.33621 0.43492,-0.67068 0.6496,-1.00945 1.16202,-1.80808 2.22203,-3.63864 3.05151,-5.49251 2.81515,-6.28743 3.71349,-10.95001 3.72363,-19.40342 0.0122,-6.47538 -0.16431,-8.29456 -1.12736,-11.6601 -1.99809,-6.98375 -5.62119,-13.50753 -10.29656,-18.53995 l -2.3993,-2.58199 1.24051,-4.06698 c 4.84264,-15.87262 5.26377,-31.64139 1.16927,-43.84241 -4.68246,-13.95723 -15.0342,-25.83167 -29.55906,-33.90612 l -5.14226,-2.85796 -0.30122,-2.9015 c -0.92859,-8.94741 -3.10298,-15.44857 -7.35663,-21.98968 -5.23394,-8.05082 -13.66631,-15.44714 -23.04847,-20.22075 -3.36156,-1.70999 -3.66071,-1.99566 -3.95571,-3.77241 -2.27584,-13.71691 -9.60312,-24.29434 -21.68589,-31.29758 -6.99683,-4.05469 -14.97105,-6.118841 -25.30005,-6.548136 l -6.61641,-0.27439 0.0304,-7.986925 c 0.0182,-5.582893 -0.2364,-9.369667 -0.84971,-12.588356 -4.11984,-21.609553 -16.17594,-39.386157 -34.9423,-51.519398 -3.00371,-1.942098 -3.89792,-2.874932 -5.69021,-5.929297 -5.91416,-10.0863736 -14.2798,-17.40162677 -22.92903,-20.048263 -0.47547,-0.1457653 -0.82183,-0.2205839 -1.03672,-0.2138877 z"
       style="display:inline;fill:#800080;stroke-width:0.26997"
       id="path229" /><path
       d="m 18.021122,256.35386 c -0.273,0.09 -1.53703,1.65113 -2.80603,3.48713 -6.874,9.936 -9.8271485,19.70293 -9.2521485,30.59193 0.76,14.342 7.5238725,26.07693 19.7858725,34.32193 12.55,8.439 33.048242,15.14314 51.285242,16.77314 5.542,0.495 20.878865,-0.14114 26.890862,-1.11414 6.072,-0.984 18.17409,-3.87561 21.16409,-5.05861 l 1.49293,-0.59118 -1.49293,-0.67024 c -0.823,-0.368 -3.60085,-1.57879 -6.17585,-2.69079 -9.652,-4.172 -22.299135,-11.83728 -30.675135,-18.59628 -2.191,-1.767 -6.377275,-5.47051 -9.302275,-8.23051 -4.634,-4.37 -5.690519,-5.12432 -8.215519,-5.85132 -4.697,-1.351 -12.479335,-4.57298 -18.089335,-7.48998 -6.876,-3.575 -13.477814,-8.33377 -19.475814,-14.03377 l -4.873087,-4.63331 -0.490926,1.89497 c -1.863,7.169 -0.612031,14.22429 3.805969,21.46329 10.954,17.946 35.344989,29.634 66.350989,31.796 4.852003,0.338 5.067933,0.39598 2.987933,0.80098 -3.267002,0.638 -15.430973,0.03 -22.069973,-1.11001 -25.83,-4.415 -48.218729,-20.84618 -52.363729,-38.42918 -1.091,-4.627 -0.981101,-10.76201 0.258899,-14.44201 l 1.019059,-3.02669 -2.815332,-4.2323 c -1.548,-2.326 -3.631691,-5.7708 -4.629691,-7.6538 -0.998,-1.883 -2.040071,-3.35625 -2.314071,-3.27525 z"
       style="display:inline;fill:#ff80e5"
       id="path71" /><path
       d="m 359.43998,271.20535 c -0.0276,0.1588 0.0202,0.50118 0.16096,1.06116 0.89217,3.55436 2.11302,11.9573 2.33459,16.07505 0.35742,6.68717 -0.1975,10.06849 -2.68019,16.24264 -2.44748,6.08268 -4.31776,8.90323 -8.24456,12.43001 l -2.58489,2.32106 2.97866,-3.51791 c 5.33046,-6.2965 8.15929,-12.99214 9.01814,-21.34861 0.79424,-7.71614 0.37197,-9.99344 -0.72794,-3.92637 -0.50108,2.76581 -1.35875,6.28137 -1.90474,7.8095 -4.376,12.24633 -14.97561,21.65495 -27.28447,24.21152 -3.73554,0.77476 -14.74716,0.46668 -17.53416,-0.49287 -1.91242,-0.65838 -2.30315,-0.55093 -6.87661,1.8589 -4.69846,2.47585 -10.24194,4.7258 -16.48071,6.68953 -2.50983,0.78908 -3.18213,1.29275 -3.96739,2.97581 -0.51912,1.11466 -1.34375,2.55927 -1.83268,3.20974 -0.72215,0.96367 -0.75265,1.27998 -0.15889,1.7009 1.53869,1.09235 10.98555,4.26684 15.48642,5.20328 4.22106,0.8767 6.07535,1.16054 10.77547,1.64613 0.75619,0.0694 3.77682,-0.0465 6.70968,-0.27794 l 6e-5,9.7e-4 c 14.1701,-1.11629 28.03099,-7.03841 37.68945,-16.10709 5.84594,-5.48857 10.9039,-14.89964 12.5248,-23.30064 1.08324,-5.62051 0.32573,-16.38729 -1.5675,-22.25876 -1.74667,-5.42097 -5.64066,-13.3177 -5.8335,-12.20619 z"
       style="display:inline;fill:#ff80e5;stroke-width:1.084"
       id="path54"
       inkscape:label="path54" /><path
       d="m 353.67712,270.15664 c -0.41864,0.13261 -1.17769,1.07906 -2.48719,3.06131 -1.321,1.998 -3.50603,5.03005 -4.85603,6.73705 -1.348,1.707 -3.69515,5.40407 -5.21415,8.21707 -1.52,2.813 -4.02566,6.88403 -5.56866,9.04803 -3.563,4.999 -11.05703,12.4101 -16.43103,16.2481 l -4.16409,2.97398 h 4.95629 c 3.304,0 6.23787,-0.32733 8.79687,-0.98133 5.401,-1.382 10.20575,-4.0721 14.61875,-8.1871 6.479,-6.039 10.02515,-12.84254 11.37915,-21.82554 0.625,-4.153 0.66673,-5.98332 0.22273,-9.78132 -0.3,-2.571 -0.723,-4.99203 -0.94,-5.38003 -0.0718,-0.1285 -0.17309,-0.17443 -0.31264,-0.13022 z"
       style="display:inline;fill:#ffaaee"
       id="path68" /><path
       d="m 323.44227,187.8707 c -1.03513,0.32616 -0.35352,2.35484 2.06086,6.04046 3.109,4.738 6.16875,11.26669 7.25175,15.46469 1.848,7.163 1.77093,17.19934 -0.18707,24.73234 -5.847,22.498 -24.67557,39.62976 -50.77157,46.19976 -7.847,1.975 -14.68724,2.82703 -24.99124,3.11403 -35.214,0.983 -68.23318,-8.69484 -92.11118,-26.99784 l -4.90306,-3.75894 -4.98884,0.14159 -4.98884,0.14314 3.78581,4.73098 c 4.496,5.62 13.26812,14.42709 18.80712,18.88309 8.204,6.601 19.79122,13.51778 28.48922,17.00878 2.254,0.903 4.01281,1.72944 3.90881,1.83244 -0.442,0.443 -9.96606,-3.14626 -15.47606,-5.83426 -10.272,-5.008 -19.27397,-11.61472 -28.86697,-21.18372 -5.062,-5.049 -10.98198,-12.07316 -12.57598,-14.92416 -0.32,-0.573 -2.51387,-0.9279 -9.36687,-1.5229 -8.257,-0.714 -20.70909,-2.36432 -22.76709,-3.01532 -0.48,-0.151 -0.87126,-0.15482 -0.87126,-0.01 0,0.145 1.262,2.45819 2.805,5.13819 13.847,24.05 34.40405,42.77582 61.68305,56.18882 17.679,8.692 33.76136,13.41204 54.03236,15.86104 7.822,0.945 25.0968,0.97977 32.8688,0.0698 v -0.003 c 19.279,-2.262 33.7762,-7.50985 47.6312,-17.24185 3.907,-2.745 17.54254,-15.62802 17.04754,-16.10702 -0.113,-0.1 -2.8057,1.10504 -6.0017,2.68304 -9.997,4.938 -23.27115,8.77329 -39.50715,11.41429 -8.951,1.456 -31.31595,3.00658 -29.60595,2.05258 0.397,-0.222 10.58328,-2.56174 22.63428,-5.20174 28.448,-6.231 35.43073,-8.30506 44.07173,-13.08706 15.578,-8.625 24.25716,-18.77904 29.33516,-34.32504 2.711,-8.303 3.2791,-12.06318 3.2551,-21.58318 -0.01,-6.769 -0.21545,-8.99598 -1.12345,-12.63798 -3.386,-13.587 -12.74152,-25.08668 -26.84952,-33.00368 -1.85363,-1.03987 -3.09291,-1.45711 -3.71399,-1.26142 z"
       style="display:inline;fill:#ff80e5"
       id="path90" /><path
       d="m 41.433335,197.91454 c -0.172599,8.7e-4 -1.725032,1.08024 -3.4528,2.39897 -10.652895,8.14 -16.812807,19.86097 -17.276196,32.87211 -0.682843,19.19578 9.145272,36.7337 27.910745,49.80004 3.751514,2.61121 12.935184,7.58358 13.998238,7.57822 0.465823,-0.002 -0.624001,-1.77654 -2.890223,-4.70028 -9.415137,-12.14852 -16.695226,-26.66321 -19.047343,-37.96325 -1.349113,-6.48784 -1.660886,-9.2024 -1.057769,-9.20547 0.285377,-0.001 0.521911,0.41925 0.524302,0.93504 0.0086,1.87078 2.02204,8.94561 3.981359,13.99757 2.439679,6.28174 7.573466,15.2888 12.366438,21.69782 7.58959,10.14469 21.878978,24.07292 33.488025,32.64168 18.749439,13.83806 43.330779,25.03358 69.757569,31.77115 14.75149,3.76015 25.37718,5.4257 43.77296,6.85958 6.36412,0.49486 25.40593,0.12638 31.64172,-0.61442 15.12878,-1.79795 29.67168,-6.62455 34.96499,-11.60369 1.23131,-1.15759 1.43231,-1.53005 0.72609,-1.34225 -2.19996,0.58323 -9.22869,1.40674 -16.26878,1.90904 -8.30772,0.59263 -20.57721,0.11455 -29.87815,-1.15143 -13.84842,-1.89287 -31.39333,-6.78308 -41.90954,-11.68223 -4.2507,-1.98032 -4.88136,-2.12452 -11.19321,-2.56234 -19.41139,-1.34891 -37.25811,-8.80749 -53.52607,-22.36746 -15.18991,-12.66072 -28.824677,-32.15966 -37.368133,-53.44158 l -2.40922,-5.99949 -4.316597,-2.46067 c -4.902734,-2.79577 -9.4491,-5.98661 -13.382777,-9.39007 -4.660343,-4.03124 -4.303412,-3.99384 -3.832675,-0.39683 1.144851,8.75576 3.609487,16.57625 8.212762,26.06877 8.071843,16.64923 20.676104,31.60767 35.49223,42.12108 5.09678,3.61557 5.92352,4.38502 2.69812,2.508 -17.511549,-10.18966 -30.991935,-25.11184 -39.764662,-44.0203 -4.69443,-10.11637 -7.655274,-20.9854 -7.69576,-28.23925 -0.0091,-1.94139 -0.35734,-2.61691 -2.989796,-5.84581 -4.927587,-6.04195 -8.85682,-12.88627 -10.337895,-18.01127 -0.34287,-1.18852 -0.766334,-2.16185 -0.937952,-2.16098 z"
       style="display:inline;fill:#ffaaee;stroke-width:1.00184"
       id="path70" /><path
       d="m 82.063208,239.03991 c -0.32,0.31101 6.545631,13.75625 9.775631,19.14466 14.244001,23.76382 34.313001,41.25974 56.996001,49.68797 8.801,3.27088 20.13835,6.02299 25.05635,6.08246 l 1.49397,0.01 -1.92236,-1.06253 c -14.524,-8.09384 -22.6737,-13.92216 -32.3727,-23.14691 -7.632,-7.25832 -12.92719,-13.39818 -17.91519,-20.77447 -3.358,-4.9653 -8.271,-13.871 -10.157,-18.41415 -0.958,-2.30668 -1.22891,-2.56411 -3.20291,-3.03695 -7.563,-1.81433 -17.368217,-4.73325 -22.062217,-6.56611 -3.009,-1.17479 -5.569575,-2.04248 -5.689575,-1.92354 z"
       style="display:inline;fill:#ffaaee;stroke-width:0.987383"
       id="path55" /><path
       d="m 321.65789,193.39801 2.62723,5.62395 c 2.781,5.953 3.86491,9.60927 4.75991,16.06827 1.499,10.829 -2.45183,24.5357 -9.93583,34.4687 -11.879,15.763 -31.57446,25.6093 -55.08346,27.5363 -22.89753,1.87561 -49.29655,-1.89851 -71.95788,-10.28826 -9.231,-3.418 -29.73596,-14.08697 -27.12496,-14.11697 2.592,-0.027 19.87131,-1.50226 23.39031,-1.99626 2.193,-0.308 6.78568,-1.11469 10.20868,-1.79369 3.425,-0.678 9.92201,-1.65923 14.44201,-2.18023 29.246,-3.366 51.32489,-11.51391 63.09589,-23.28591 1.528,-1.527 2.36901,-1.86871 7.04401,-2.85771 2.919,-0.618 6.90001,-1.59916 8.84701,-2.17816 1.945,-0.58 3.69517,-1.05317 3.88917,-1.05317 0.84,0 -4.22479,6.3703 -7.40679,9.3183 -12.229,11.321 -36.31109,21.69269 -58.27809,25.09769 -5.249,0.813 -3.94098,1.18909 1.61902,0.46509 7.002,-0.912 19.46664,-3.85689 26.60664,-6.28489 7.554,-2.57 17.77128,-7.44118 23.42028,-11.16418 5.201,-3.429 11.72493,-9.70386 14.63993,-14.08286 2.603,-3.908 4.15027,-5.83892 4.67827,-5.83892 0.186,0 0.7357,1.69408 1.2237,3.76308 1.009,4.288 0.82328,7.38671 -0.71572,11.85871 -4.692,13.637 -22.42936,26.28016 -44.76936,31.90916 -22.283,5.616 -49.53688,4.94081 -70.01588,-1.73219 -3.273,-1.067 -6.04787,-1.84261 -6.16087,-1.72961 -0.333,0.331 5.19306,2.6745 10.62106,4.5005 6.276,2.112 15.61486,3.9892 23.65386,4.7532 7.607,0.723 23.58403,0.31513 30.62603,-0.78187 21.268,-3.314 38.51287,-10.98228 49.30087,-21.92528 8.428,-8.55 11.78102,-17.98199 9.46402,-26.63299 -1.47,-5.497 -1.53001,-5.09305 0.98599,-6.59805 1.259,-0.753 2.47409,-1.36994 2.70009,-1.36994 0.226,0 1.0191,1.8364 1.7601,4.0814 1.838,5.57 1.87474,11.77785 0.0997,17.82785 -1.341,4.575 -1.36695,5.74116 -0.06,2.67116 3.198,-7.513 3.50611,-15.53113 0.85111,-22.09013 l -1.51205,-3.73414 2.19418,-1.90789 c 2.807,-2.443 6.09401,-6.71797 8.43101,-10.97297 z"
       style="display:inline;fill:#ffaaee"
       id="path72" /><path
       d="m 73.125252,153.75547 c -1.309875,0.167 -2.93193,0.74857 -5.09943,1.77457 -7.727,3.659 -13.888752,9.42314 -17.562752,16.43414 -2.412,4.602 -3.448832,8.90598 -3.431832,14.25598 0.07,21.393 17.987923,40.17584 48.454923,50.77984 11.535999,4.016 27.660579,7.26292 43.296579,8.72092 6.321,0.588 35.64036,0.12689 42.82736,-0.66611 3.149,-0.351 5.39106,-0.76377 4.98006,-0.91777 -0.411,-0.154 -2.70918,-0.53818 -5.10718,-0.85318 -9.31,-1.222 -21.74191,-5.22305 -31.51591,-10.14305 -15.008,-7.557 -28.70918,-20.4858 -34.94618,-32.9768 -2.881,-5.771 -2.59995,-7.8529 0.35605,-2.6479 11.087,19.511 32.51394,34.30506 57.84194,39.93606 11.821,2.628 16.05896,3.03179 31.79496,3.02979 12.947,0 15.44324,-0.12694 21.03024,-1.10794 17.348,-3.03 30.27576,-7.22608 41.28276,-13.39608 7.521,-4.216 7.76803,-3.92285 -3.14297,-3.75585 -15.074,0.228 -28.42197,-1.31334 -44.92697,-5.18934 -25.997,-6.108 -48.093,-16.26184 -65.257,-29.98784 -3.413,-2.73 -3.53985,-2.78286 -10.05985,-4.11086 -8.766,-1.789 -14.39583,-3.41984 -23.89983,-6.93084 l -7.90029,-2.9161 8.00002,7.81089 c 17.473,17.065 35.76616,31.31418 51.11316,39.81618 20.506,11.358 42.94412,14.76585 63.30312,9.61285 3.062,-0.775 5.64201,-1.34188 5.73401,-1.25988 0.397,0.353 -2.62347,1.89374 -5.84047,2.98174 -11.343,3.839 -26.0376,4.19129 -39.4286,0.94929 -22.978,-5.563 -49.21714,-23.29311 -78.10014,-52.77611 -8.459,-8.635 -8.67489,-8.80998 -13.79089,-11.29698 -2.857,-1.39 -5.332957,-2.39009 -5.500957,-2.22209 -0.168,0.168 -0.491336,1.2672 -0.719336,2.4412 -2.264,11.712 4.540363,27.06798 18.213363,41.10498 2.468,2.533 4.37601,4.60582 4.23901,4.60282 -0.577,-0.01 -8.81509,-7.71602 -11.51609,-10.77402 -5.418,-6.139 -9.576049,-13.57411 -11.376049,-20.34811 -1.208,-4.548 -1.465067,-12.15484 -0.526067,-15.63884 0.32,-1.191 0.399117,-2.32901 0.173117,-2.52801 -0.226,-0.199 -3.625095,-2.02023 -7.555095,-4.04523 l -7.144783,-3.68195 -2.085144,2.29495 c -5.909,6.505 -8.079317,15.62498 -5.820317,24.45898 4.415,17.262 23.577997,33.53827 55.808998,47.40227 6.509,2.799 5.46309,2.92685 -2.23191,0.27285 -27.522997,-9.49 -49.307133,-26.97812 -54.873133,-44.05312 -1.05,-3.217 -1.305735,-4.98984 -1.332735,-9.21184 -0.06,-8.11 1.905172,-13.44608 6.910172,-18.85208 l 2.779676,-3.00085 -1.396814,-0.84905 c -0.767,-0.465 -2.038117,-1.28783 -2.824117,-1.82883 -0.919,-0.633 -1.916802,-0.88065 -3.226677,-0.71365 z m -6.582027,6.41718 c 0.07,0.23513 -0.420935,1.22766 -1.508435,2.85616 -3.97,5.946 -6.008776,15.3143 -4.986776,22.9123 1.887,14.028 10.893863,27.29279 25.025863,36.86079 6.774,4.585 7.299,5.18135 1.942,2.19935 h -0.0088 c -7.591,-4.225 -15.02014,-10.549 -19.79414,-16.846 -3.076,-4.06 -6.825997,-12.08503 -7.921997,-16.95503 -1.128,-5.018 -1.137819,-13.17627 -0.0098,-17.79427 0.956,-3.949 3.336872,-9.03503 5.405872,-11.54503 1.1555,-1.401 1.786217,-1.92339 1.856217,-1.68827 z"
       style="display:inline;fill:#ffd5f6"
       id="path69" /><path
       d="m 290.77192,141.64975 c -0.227,0 -0.75668,1.80726 -1.17668,4.01526 l -0.76532,4.01319 2.20193,1.80403 c 5.384,4.413 11.10619,13.28288 13.09119,20.29488 1.179,4.164 1.31894,11.65695 0.29094,15.51895 -2.723,10.227 -11.48101,18.60903 -23.07301,22.08703 -4.547,1.364 -5.62679,1.08384 -1.79679,-0.46716 5.297,-2.146 10.7677,-5.69302 15.0027,-9.72602 3.385,-3.224 4.52133,-4.70899 6.09833,-7.96799 4.645,-9.605 3.57672,-18.84997 -3.43028,-29.65297 -2.661,-4.102 -7.78993,-9.96378 -8.70593,-9.94978 -0.319,0 -1.11113,1.23475 -1.76113,2.73575 -0.65,1.5 -1.91905,3.76687 -2.82205,5.03587 l -1.64176,2.31045 1.41697,2.79673 c 3.124,6.165 3.31272,12.86319 0.53072,18.80919 -1.832,3.917 -2.44977,4.00969 -0.96377,0.14469 1.63,-4.238 1.82912,-10.55609 0.46612,-14.76809 -0.602,-1.859 -1.42008,-3.81991 -1.82108,-4.35891 -0.7,-0.945 -0.81903,-0.88783 -3.28403,1.57717 l -2.55592,2.55591 0.63769,3.00912 c 1.046,4.931 0.49798,10.63376 -1.40302,14.60376 -4.757,9.93 -16.46168,16.75827 -32.35668,18.87327 -6.334,0.842 -21.82525,0.31275 -29.04525,-0.99425 -16.517,-2.988 -33.09198,-9.17692 -43.16998,-16.11892 l -3.90984,-2.69389 -6.87503,-0.33021 -6.874,-0.32866 3.68401,2.63859 c 12.422,8.894 28.51977,16.95017 43.31777,21.67517 23.794,7.598 51.08244,10.47994 73.40844,7.75094 15.384,-1.88 25.91378,-6.1547 33.93178,-13.7697 6.88,-6.536 10.15014,-13.42599 10.53114,-22.19399 0.614,-14.165 -7.30132,-26.87399 -22.66632,-36.38899 -2.256,-1.396 -4.28586,-2.54042 -4.51186,-2.54042 z"
       style="display:inline;fill:#ffaaee"
       id="path73" /><path
       d="m 274.49591,170.13225 c -0.684,-0.685 -2.23367,1.80682 -2.97967,4.78782 -0.457,1.833 -1.3724,4.25889 -2.0314,5.39089 -3.869,6.635 -14.9558,12.07218 -26.6268,13.06018 -7.705,0.651 -19.5989,-0.50111 -24.5339,-2.37711 -2.272,-0.864 -1.54334,-0.92704 2.50166,-0.21704 19.396,3.405 37.20205,-0.15802 45.43805,-9.09402 2.472,-2.68 5.43321,-8.65994 4.29121,-8.65994 -0.113,0 -1.71391,0.88907 -3.57291,1.97507 -15.732,9.194 -39.73798,11.44465 -63.48398,5.95365 -2.589,-0.598 -5.15704,-1.08669 -5.70404,-1.08469 -0.548,0 -3.66199,0.70476 -6.91999,1.56476 -5.103,1.345 -10.12714,2.18399 -20.21014,3.37499 -2.074,0.244 -2.16194,0.314 -1.26194,0.971 1.653,1.21 10.25103,5.49206 14.79703,7.36906 11.731,4.847 22.81678,7.56336 38.49378,9.42836 3.365,0.401 17.17087,0.2739 20.41787,-0.1881 8.976,-1.276 17.87513,-4.78388 23.06113,-9.08988 3.766,-3.129 6.81493,-7.4332 8.10493,-11.4422 0.915,-2.847 1.04496,-4.07582 0.78496,-7.43882 -0.17,-2.216 -0.42485,-4.14398 -0.56585,-4.28398 z"
       style="display:inline;fill:#ffd5f6"
       id="path74" /><path
       d="m 242.25672,102.42296 c -2.90602,-0.16618 -2.43038,0.32413 1.12948,1.5943 9.93417,3.54704 17.63779,11.23094 21.11658,21.05956 1.50456,4.2483 1.64601,14.34018 0.27056,19.29074 -3.48083,12.52838 -13.61396,23.90369 -27.89611,31.31165 l -4.57781,2.374 3.03856,-0.30233 c 1.67027,-0.16488 4.97291,-0.6413 7.33954,-1.06047 9.06092,-1.60019 18.62196,-5.34818 25.0997,-9.83786 4.43643,-3.07523 10.34418,-9.42133 12.49733,-13.42529 3.92914,-7.30367 5.21023,-16.82332 3.18619,-23.6512 -1.52489,-5.13929 -4.69799,-10.43239 -8.59562,-14.33999 -7.43335,-7.45068 -15.89653,-11.19447 -28.56433,-12.63276 -1.73126,-0.19667 -3.0754,-0.32496 -4.04407,-0.38035 z"
       style="display:inline;fill:#ffd5f6;stroke-width:1.00488"
       id="path75" /><path
       d="m 232.65298,103.82209 -0.9958,0.01 0.9958,0.54828 c 1.884,1.033 5.35696,4.65505 7.28896,7.60005 6.837,10.423 5.7422,26.05861 -2.7528,39.27461 -4.399,6.843 -10.66621,12.78293 -19.90421,18.86293 -2.426,1.597 -4.07169,2.90422 -3.65869,2.90422 1.631,0 11.22368,-3.67714 14.04668,-5.38314 3.649,-2.206 6.83704,-5.08375 8.81704,-7.96075 0.817,-1.19 1.59392,-2.05705 1.72392,-1.92805 0.456,0.457 -1.76988,4.14706 -3.97288,6.58306 -4.206,4.656 -11.65693,7.99368 -20.95893,9.39168 -2.71,0.406 -5.14115,0.95126 -5.39915,1.21026 -0.295,0.295 0.89185,0.69583 3.18585,1.07383 2.011,0.333 3.88027,0.68914 4.15427,0.79014 1.252,0.468 7.08614,-0.44289 10.34614,-1.61489 v 0.003 c 16.721,-6.008 29.87497,-17.83639 34.58497,-31.09939 1.703,-4.794 2.0797,-11.62296 0.9157,-16.59796 -2.062,-8.817 -7.82664,-15.96484 -16.34164,-20.26284 -2.745,-1.387 -9.99023,-3.42896 -12.07523,-3.40496 z"
       id="path79"
       style="display:inline;fill:#ffaaee" /><path
       d="m 229.96891,103.95696 -8.86716,2.358 c -4.877,1.297 -11.10767,3.12917 -13.84567,4.07417 l -4.98005,1.71566 -0.11318,2.69595 c -0.75,17.411 -9.83595,30.95451 -26.27695,39.16351 -11.8,5.89 -25.36688,7.68651 -44.56988,5.90351 -11.06,-1.026 -25.55818,-1.47981 -30.32218,-0.94981 l -3.679883,0.41083 5.423963,2.44222 c 15.279,6.88 23.32114,9.908 34.43614,12.962 14.8109,4.0677 27.10139,4.96245 41.29205,3.00602 28.108,-3.873 52.20972,-19.445 60.36272,-38.994 1.358,-3.254 2.53835,-9.21125 2.53835,-12.80025 0,-7.466 -3.98212,-16.06578 -9.46712,-20.44578 z m -12.72584,4.3341 c 1.496,0 5.23806,2.52693 6.84506,4.63693 4.017,5.274 4.6881,13.88786 1.6061,20.61786 -1.296,2.829 -3.19705,5.75912 -2.51405,3.87212 0.199,-0.548 0.92268,-2.45282 1.60868,-4.23282 1.71,-4.437 2.08419,-10.34691 0.88419,-13.99191 -1.444,-4.383 -3.83523,-7.67602 -6.81923,-9.38702 -1.758,-1.008 -2.29375,-1.51216 -1.61075,-1.51516 z"
       id="path80"
       style="display:inline;fill:#ffd5f6" /><path
       d="m 200.102,112.80087 -2.89698,0.94206 c -1.594,0.518 -4.84007,1.51919 -7.21507,2.22519 l -4.31808,1.28105 -0.35967,3.35691 c -0.95,8.896 -5.18322,14.74013 -13.80122,19.05413 -5.003,2.503 -6.7842,2.58873 -2.1022,0.0997 4.204,-2.236 10.03017,-7.62385 11.84217,-10.95385 1.422,-2.612 2.84892,-7.44496 2.84892,-9.64696 v -1.35805 l -4.23488,1.43092 c -8.122,2.746 -14.19086,6.50193 -14.19086,8.78293 v 1.22989 l -28.2603,-0.34261 c -29.826,-0.362 -35.26481,-0.12698 -43.11881,1.80402 -4.763,1.176 -8.990833,3.36392 -11.723833,6.06992 -1.129,1.118 -2.052071,1.78078 -2.052071,1.47278 0,-0.748 3.100067,-3.80786 5.381067,-5.31286 2.819,-1.858 8.083805,-3.659 13.433805,-4.593 3.878002,-0.678 8.140152,-0.85123 21.459152,-0.87023 l 16.62069,-0.03 -4.66999,-1.1188 c -19.939,-4.782 -30.1327,-6.29903 -37.381702,-5.56503 -11.8,1.196 -19.804912,8.23701 -19.817912,17.43201 0,4.387 0.906574,8.69107 2.067574,9.74307 1.788,1.618 14.609169,8.62267 15.356169,8.38967 0.411,-0.127 2.987782,-0.7289 5.726782,-1.3379 v 0.017 c 4.293999,-0.955 6.421299,-1.10385 15.437299,-1.08985 5.795,0.01 14.34499,0.38697 19.17299,0.84697 10.663,1.013 15.64683,1.0341 22.29683,0.0801 12.414,-1.766 21.87211,-5.82122 29.84211,-12.79922 8.483,-7.428 13.16407,-16.04687 14.33607,-26.39787 z"
       id="path81"
       style="display:inline;fill:#ffaaee" /><path
       d="m 230.79012,75.134334 c -0.13161,-0.404733 -0.15378,0.485766 -0.18531,2.304911 -0.14584,8.400332 -1.96392,16.516601 -4.59019,20.488807 l -1.59061,2.405268 3.6449,-1.048985 c 2.00732,-0.576283 3.86002,-1.328995 4.12178,-1.671311 0.76107,-1.002076 0.48228,-9.569158 -0.55809,-17.01389 -0.46955,-3.3605 -0.71087,-5.060066 -0.84247,-5.464799 z"
       id="path86"
       style="display:inline;fill:#eed7f4;stroke-width:1.29364" /><path
       d="m 216.71542,47.446567 c -0.32039,-0.288335 0.009,0.628979 0.9466,2.713744 2.21312,4.921314 2.9826,7.848941 3.56217,13.572358 1.44946,14.280869 -4.7457,26.975705 -17.17478,35.197016 -5.08978,3.366415 -11.29533,5.895675 -22.0939,9.001435 -11.38726,3.27584 -14.21829,4.24322 -18.54844,6.33553 -4.44951,2.15169 -9.68888,7.26013 -10.8005,10.52993 -0.95585,2.8129 -1.03599,2.76456 4.74766,2.85313 l 3.86431,0.0603 0.57757,-1.74537 c 1.99667,-6.01829 17.89603,-12.86253 41.30878,-17.78183 11.14754,-2.34492 13.11589,-3.11483 16.01075,-6.26689 2.78157,-3.026248 5.65627,-8.498315 6.98637,-13.300873 1.25222,-4.512714 1.28655,-16.960502 0.0606,-21.392704 -1.47474,-5.329914 -3.84589,-10.896582 -6.49294,-15.255317 -1.66338,-2.737921 -2.6339,-4.232145 -2.95428,-4.520479 z"
       id="path85"
       style="display:inline;fill:#ddafe9;stroke-width:1.00894" /><path
       d="m 201.75511,34.839714 c -0.12992,0.128902 0.57594,1.557119 1.56108,3.180067 5.8238,9.596608 6.37126,20.557424 1.50291,30.131703 -2.02754,3.989875 -7.77185,9.356965 -12.70158,11.870048 -5.26526,2.684614 -8.57068,3.730809 -20.50268,6.484442 -14.79531,3.416413 -19.57331,5.197664 -25.926,9.666608 -8.18892,5.757968 -12.45877,14.606548 -10.95601,22.698958 0.72631,3.91679 1.44525,5.62923 2.56336,6.10627 0.6281,0.26897 8.25558,1.79353 10.8836,2.17617 0.21073,0.0305 0.38273,-0.61717 0.38273,-1.44133 0,-3.35552 2.05182,-7.20646 5.80921,-10.90707 5.51896,-5.4352 9.21277,-7.06797 29.08512,-12.86451 12.80459,-3.735109 18.7721,-6.788147 24.70536,-12.63949 4.45916,-4.397896 7.14824,-9.034669 8.67758,-14.966195 2.4265,-9.420002 2.7e-4,-20.447772 -6.66135,-30.396577 -2.79989,-4.175616 -7.86887,-9.649212 -8.42333,-9.099094 z"
       id="path84"
       style="display:inline;fill:#cd87de;stroke-width:1.01897" /><path
       d="m 195.08559,30.79919 c -0.12482,-0.06067 -0.20972,-0.04281 -0.24491,0.06663 -0.1002,0.307785 0.40879,2.681229 1.1272,5.274533 2.38668,8.605527 1.61122,15.006068 -2.5309,20.896633 -2.18729,3.108014 -3.19734,3.245837 -1.19141,0.161739 4.24733,-6.531092 5.12026,-14.118639 2.44702,-21.28298 -0.5591,-1.497337 -0.60217,-1.428739 -1.80653,2.867786 -3.05198,10.887926 -9.29712,19.212971 -19.91793,26.547842 -5.94365,4.105199 -11.28436,6.761928 -24.28384,12.083712 -5.28436,2.16386 -11.53047,4.958677 -13.87907,6.211656 -9.06878,4.84139 -15.14089,11.928154 -17.25604,20.141669 -1.46888,5.71172 -0.39559,15.60011 1.82777,16.83542 0.9198,0.50951 11.98928,3.47614 13.33591,3.57492 0.34368,0.0312 0.62445,-0.0622 0.62445,-0.18484 0,-0.13206 -0.50482,-1.11692 -1.12203,-2.20041 -0.98293,-1.72506 -1.12358,-2.68904 -1.12358,-7.69472 0,-5.56718 0.0602,-5.82804 1.85468,-9.5797 2.28548,-4.751968 5.01315,-8.08079 9.09014,-11.101459 6.70715,-4.966167 12.82671,-7.334544 28.01548,-10.839768 14.83308,-3.423079 20.52154,-5.934489 25.861,-11.418485 8.4175,-8.642961 10.07857,-20.384308 4.54973,-32.140482 -1.65963,-3.52927 -4.50344,-7.794959 -5.37714,-8.219696 z"
       id="path83"
       style="display:inline;fill:#bc5fd3;stroke-width:1.02072" /></g><g
     id="g2"
     inkscape:label="olhos"
     style="display:none"><g
       id="g3"
       inkscape:label="olho-1"><path
         d="m 70.804868,489.92808 a 51.337191,96.22999 14.655551 0 1 -4.507757,-7.8163 51.337191,96.22999 14.655551 0 1 17.098831,-130.64239 51.337191,96.22999 14.655551 0 1 21.624038,-24.7699 53.205497,110.43627 19.4165 0 0 0.0372,86.10817 53.205497,110.43627 19.4165 0 0 59.20309,5.85432 51.337191,96.22999 14.655551 0 0 -5.15281,-82.84101 51.337191,96.22999 14.655551 0 0 -54.08747,-9.12146 53.205497,110.43627 19.4165 0 1 25.38775,-59.31613 53.205497,110.43627 19.4165 0 1 83.63238,-28.24355 53.205497,110.43627 19.4165 0 0 -83.63238,28.24355 53.205497,110.43627 19.4165 0 0 -25.38775,59.31613 51.337191,96.22999 14.655551 0 0 -21.624068,24.76992 51.337191,96.22999 14.655551 0 0 -17.098791,130.6424 51.337191,96.22999 14.655551 0 0 4.507757,7.81631 z"
         style="display:inline;fill:#221c24;stroke-width:0.141363"
         id="path234" /><path
         style="display:inline;fill:#e3dbe2;stroke-width:0.249954"
         id="path215"
         sodipodi:type="arc"
         sodipodi:cx="128.39262"
         sodipodi:cy="381.49594"
         sodipodi:rx="27.175627"
         sodipodi:ry="40.883331"
         sodipodi:start="0"
         sodipodi:end="6.1804906"
         sodipodi:open="true"
         sodipodi:arc-type="arc"
         d="m 155.56825,381.49594 a 27.175627,40.883331 0 0 1 -26.478,40.86986 27.175627,40.883331 0 0 1 -27.83744,-38.77153 27.175627,40.883331 0 0 1 25.04879,-42.86046 27.175627,40.883331 0 0 1 29.12348,36.57101"
         transform="matrix(0.83471247,0,0,0.98523298,28.366974,2.0946296)" /><path
         style="display:inline;fill:#c4b7c8;stroke-width:0.292902"
         id="path213"
         sodipodi:type="arc"
         sodipodi:cx="127.32613"
         sodipodi:cy="378.08899"
         sodipodi:rx="31.985884"
         sodipodi:ry="47.69722"
         sodipodi:start="0"
         sodipodi:end="6.1804906"
         sodipodi:open="true"
         sodipodi:arc-type="arc"
         d="m 159.31202,378.08899 a 31.985884,47.69722 0 0 1 -31.16478,47.6815 31.985884,47.69722 0 0 1 -32.764833,-45.23345 31.985884,47.69722 0 0 1 29.482573,-50.00386 31.985884,47.69722 0 0 1 34.27852,42.66616"
         transform="matrix(0.83471247,0,0,0.98523298,28.366974,2.0946296)" /><path
         style="display:inline;fill:#483745;stroke-width:0.174784"
         id="path218"
         sodipodi:type="arc"
         sodipodi:cx="132.31952"
         sodipodi:cy="387.74481"
         sodipodi:rx="18.328466"
         sodipodi:ry="29.640415"
         sodipodi:start="0"
         sodipodi:end="6.1804906"
         sodipodi:open="true"
         sodipodi:arc-type="arc"
         d="m 150.64799,387.74481 a 18.328466,29.640415 0 0 1 -17.85796,29.63065 18.328466,29.640415 0 0 1 -18.77482,-28.10936 18.328466,29.640415 0 0 1 16.89403,-31.07383 18.328466,29.640415 0 0 1 19.64218,26.51398"
         transform="matrix(0.83471247,0,0,0.98523298,28.366974,2.0946296)" /><path
         style="display:inline;fill:#241c22;stroke-width:0.0466021"
         id="path219"
         sodipodi:type="arc"
         sodipodi:cx="138.44447"
         sodipodi:cy="388.25586"
         sodipodi:rx="5.3980026"
         sodipodi:ry="7.1545825"
         sodipodi:start="0"
         sodipodi:end="6.1804906"
         sodipodi:open="true"
         sodipodi:arc-type="arc"
         d="m 143.84248,388.25586 a 5.3980026,7.1545825 0 0 1 -5.25944,7.15222 5.3980026,7.1545825 0 0 1 -5.52945,-6.78501 5.3980026,7.1545825 0 0 1 4.97553,-7.50058 5.3980026,7.1545825 0 0 1 5.78492,6.39992"
         transform="matrix(0.83471247,0,0,0.98523298,28.366974,2.0946296)" /></g><g
       id="g216"
       style="display:inline;fill:#008033"
       transform="matrix(0.83471247,0,0,0.98523298,28.366974,2.0946296)"
       inkscape:label="olho-2"><path
         d="m 317.81293,489.92808 a 96.22999,51.337191 75.344449 0 0 4.50776,-7.8163 96.22999,51.337191 75.344449 0 0 -17.09884,-130.64239 96.22999,51.337191 75.344449 0 0 -21.62405,-24.7699 110.43627,53.205497 70.5835 0 1 -0.0372,86.10817 110.43627,53.205497 70.5835 0 1 -59.20309,5.85432 96.22999,51.337191 75.344449 0 1 5.15281,-82.84101 96.22999,51.337191 75.344449 0 1 54.08747,-9.12146 110.43627,53.205497 70.5835 0 0 -25.38775,-59.31613 110.43627,53.205497 70.5835 0 0 -83.63238,-28.24355 110.43627,53.205497 70.5835 0 1 83.63238,28.24355 110.43627,53.205497 70.5835 0 1 25.38775,59.31613 96.22999,51.337191 75.344449 0 1 21.62408,24.76992 96.22999,51.337191 75.344449 0 1 17.0988,130.6424 96.22999,51.337191 75.344449 0 1 -4.50776,7.81631 z"
         style="display:inline;fill:#221c24;stroke-width:0.141363"
         id="path233"
         transform="matrix(1.1980173,0,0,1.0149884,-33.984126,-2.1260246)" /><path
         style="display:inline;fill:#c4b7c8;stroke-width:0.292902"
         id="path214"
         sodipodi:type="arc"
         sodipodi:cx="272.96399"
         sodipodi:cy="378.08899"
         sodipodi:rx="31.985884"
         sodipodi:ry="47.69722"
         sodipodi:start="0"
         sodipodi:end="6.1804906"
         sodipodi:open="true"
         sodipodi:arc-type="arc"
         d="m 304.94987,378.08899 a 31.985884,47.69722 0 0 1 -31.16478,47.6815 31.985884,47.69722 0 0 1 -32.76483,-45.23345 31.985884,47.69722 0 0 1 29.48258,-50.00386 31.985884,47.69722 0 0 1 34.27852,42.66616" /><path
         style="display:inline;fill:#e3dbe2;stroke-width:0.250993"
         id="path216"
         sodipodi:type="arc"
         sodipodi:cx="272.32983"
         sodipodi:cy="381.83661"
         sodipodi:rx="27.175627"
         sodipodi:ry="41.224026"
         sodipodi:start="0"
         sodipodi:end="6.1804906"
         sodipodi:open="true"
         sodipodi:arc-type="arc"
         d="m 299.50546,381.83661 a 27.175627,41.224026 0 0 1 -26.478,41.21044 27.175627,41.224026 0 0 1 -27.83744,-39.09463 27.175627,41.224026 0 0 1 25.04879,-43.21762 27.175627,41.224026 0 0 1 29.12348,36.87576" /><path
         style="display:inline;fill:#483745;stroke-width:0.174784"
         id="path217"
         sodipodi:type="arc"
         sodipodi:cx="266.96545"
         sodipodi:cy="387.74481"
         sodipodi:rx="18.328466"
         sodipodi:ry="29.640415"
         sodipodi:start="0"
         sodipodi:end="6.1804906"
         sodipodi:open="true"
         sodipodi:arc-type="arc"
         d="m 285.29392,387.74481 a 18.328466,29.640415 0 0 1 -17.85796,29.63065 18.328466,29.640415 0 0 1 -18.77482,-28.10936 18.328466,29.640415 0 0 1 16.89403,-31.07383 18.328466,29.640415 0 0 1 19.64219,26.51398" /><path
         style="fill:#241c22;stroke-width:0.0466021"
         id="path220"
         sodipodi:type="arc"
         sodipodi:cx="266.42902"
         sodipodi:cy="388.25586"
         sodipodi:rx="5.3980026"
         sodipodi:ry="7.1545825"
         sodipodi:start="0"
         sodipodi:end="6.1804906"
         sodipodi:open="true"
         sodipodi:arc-type="arc"
         d="m 271.82702,388.25586 a 5.3980026,7.1545825 0 0 1 -5.25943,7.15222 5.3980026,7.1545825 0 0 1 -5.52946,-6.78501 5.3980026,7.1545825 0 0 1 4.97554,-7.50058 5.3980026,7.1545825 0 0 1 5.78491,6.39992" /></g></g><g
     id="g249"
     transform="matrix(1,0,0,0.83223309,555.85858,-1.091892)"
     style="display:none"
     inkscape:label="boca"><path
       d="m -302.17204,537.34178 a 64.854715,134.40115 87.148123 0 1 -31.15869,5.25593 64.854715,134.40115 87.148123 0 1 -18.81303,1.24993 64.854715,134.40115 87.148123 0 1 -73.97878,-8.69517 78.088853,120.86617 4.4809143 0 0 76.02088,46.90447 78.088853,120.86617 4.4809143 0 0 47.92962,-44.71516 z"
       style="fill:#501644;stroke-width:0.349726"
       id="path245" /><path
       d="m -311.8964,546.89024 a 46.596052,113.39645 87.759901 0 1 -26.29738,3.77504 46.596052,113.39645 87.759901 0 1 -15.87786,0.89774 46.596052,113.39645 87.759901 0 1 -62.43677,-6.24523 65.800984,86.949166 7.202732 0 0 64.16027,33.68875 65.800984,86.949166 7.202732 0 0 40.45174,-32.1163 z"
       style="fill:#6c5367;stroke-width:0.272291"
       id="path244" /><g
       id="g246"
       transform="matrix(1,0,0,0.64758444,8.0559215,185.59259)"><path
         d="m -281.06742,522.29512 a 56.159737,184.15176 88.477341 0 1 -1.80545,0.29319 101.87257,109.92406 56.358365 0 1 -65.71289,38.69586 101.87257,109.92406 56.358365 0 1 -104.22679,-40.59049 56.159737,184.15176 88.477341 0 1 -1.63688,-0.34082 87.6125,97.845088 67.230211 0 0 89.16943,52.78083 87.6125,97.845088 67.230211 0 0 13.50385,-1.71196 87.6125,97.845088 67.230211 0 0 70.70873,-49.12661 z"
         style="fill:#501644;stroke-width:0.38094"
         id="path243" /><path
         d="m -280.39609,520.75546 a 50.466908,185.56466 88.670176 0 1 -1.81945,0.26345 92.94347,109.10186 77.06615 0 1 -66.22174,34.77086 92.94347,109.10186 77.06615 0 1 -105.03392,-36.47331 50.466908,185.56466 88.670176 0 1 -1.64956,-0.30624 79.416576,97.745091 78.903718 0 0 89.85995,47.42713 79.416576,97.745091 78.903718 0 0 13.60842,-1.5383 79.416576,97.745091 78.903718 0 0 71.2563,-44.14359 z"
         style="fill:#501644;stroke-width:0.3625"
         id="path246" /></g><g
       id="g248"
       transform="matrix(0.67149207,0,0,0.83924904,-116.28011,104.57818)"><path
         d="m -281.06742,522.29512 a 56.159737,184.15176 88.477341 0 1 -1.80545,0.29319 101.87257,109.92406 56.358365 0 1 -65.71289,38.69586 101.87257,109.92406 56.358365 0 1 -104.22679,-40.59049 56.159737,184.15176 88.477341 0 1 -1.63688,-0.34082 87.6125,97.845088 67.230211 0 0 89.16943,52.78083 87.6125,97.845088 67.230211 0 0 13.50385,-1.71196 87.6125,97.845088 67.230211 0 0 70.70873,-49.12661 z"
         style="fill:#501644;stroke-width:0.38094"
         id="path247" /><path
         d="m -280.39609,520.75546 a 50.466908,185.56466 88.670176 0 1 -1.81945,0.26345 92.94347,109.10186 77.06615 0 1 -66.22174,34.77086 92.94347,109.10186 77.06615 0 1 -105.03392,-36.47331 50.466908,185.56466 88.670176 0 1 -1.64956,-0.30624 79.416576,97.745091 78.903718 0 0 89.85995,47.42713 79.416576,97.745091 78.903718 0 0 13.60842,-1.5383 79.416576,97.745091 78.903718 0 0 71.2563,-44.14359 z"
         style="fill:#501644;stroke-width:0.3625"
         id="path248" /></g></g></svg>
